<svg width="87" height="174" viewBox="0 0 87 174" fill="none" xmlns="http://www.w3.org/2000/svg">
<g opacity="0.5">
<path d="M124.865 6.21802H53.9238" stroke="white" stroke-opacity="0.5" stroke-miterlimit="10"/>
<path d="M108.771 1H70.0312" stroke="white" stroke-opacity="0.5" stroke-miterlimit="10"/>
<path d="M135.083 11.4363H43.709" stroke="white" stroke-opacity="0.5" stroke-miterlimit="10"/>
<path d="M142.88 16.6392H35.9102" stroke="white" stroke-opacity="0.5" stroke-miterlimit="10"/>
<path d="M149.211 21.8577H29.5781" stroke="white" stroke-opacity="0.5" stroke-miterlimit="10"/>
<path d="M154.519 27.0608H24.2734" stroke="white" stroke-opacity="0.5" stroke-miterlimit="10"/>
<path d="M159.076 32.2788H19.7139" stroke="white" stroke-opacity="0.5" stroke-miterlimit="10"/>
<path d="M162.961 37.4822H15.8301" stroke="white" stroke-opacity="0.5" stroke-miterlimit="10"/>
<path d="M166.317 42.7002H12.4736" stroke="white" stroke-opacity="0.5" stroke-miterlimit="10"/>
<path d="M169.176 47.9036H9.63086" stroke="white" stroke-opacity="0.5" stroke-miterlimit="10"/>
<path d="M171.608 53.1216H7.18164" stroke="white" stroke-opacity="0.5" stroke-miterlimit="10"/>
<path d="M173.644 58.3398H5.14355" stroke="white" stroke-opacity="0.5" stroke-miterlimit="10"/>
<path d="M175.33 63.543H3.45801" stroke="white" stroke-opacity="0.5" stroke-miterlimit="10"/>
<path d="M176.665 68.7607H2.125" stroke="white" stroke-opacity="0.5" stroke-miterlimit="10"/>
<path d="M177.661 73.9641H1.12793" stroke="white" stroke-opacity="0.5" stroke-miterlimit="10"/>
<path d="M178.335 79.1819H0.453125" stroke="white" stroke-opacity="0.5" stroke-miterlimit="10"/>
<path d="M178.717 84.386H0.0732422" stroke="white" stroke-opacity="0.5" stroke-miterlimit="10"/>
<path d="M178.79 89.6038H0" stroke="white" stroke-opacity="0.5" stroke-miterlimit="10"/>
<path d="M178.57 94.8069H0.219727" stroke="white" stroke-opacity="0.5" stroke-miterlimit="10"/>
<path d="M178.043 100.025H0.748047" stroke="white" stroke-opacity="0.5" stroke-miterlimit="10"/>
<path d="M177.193 105.243H1.59766" stroke="white" stroke-opacity="0.5" stroke-miterlimit="10"/>
<path d="M176.035 110.447H2.75586" stroke="white" stroke-opacity="0.5" stroke-miterlimit="10"/>
<path d="M174.524 115.664H4.26465" stroke="white" stroke-opacity="0.5" stroke-miterlimit="10"/>
<path d="M172.693 120.868H6.09766" stroke="white" stroke-opacity="0.5" stroke-miterlimit="10"/>
<path d="M170.436 126.085H8.35547" stroke="white" stroke-opacity="0.5" stroke-miterlimit="10"/>
<path d="M167.813 131.29H10.9795" stroke="white" stroke-opacity="0.5" stroke-miterlimit="10"/>
<path d="M164.705 136.507H14.0859" stroke="white" stroke-opacity="0.5" stroke-miterlimit="10"/>
<path d="M161.1 141.711H17.6924" stroke="white" stroke-opacity="0.5" stroke-miterlimit="10"/>
<path d="M156.892 146.929H21.8975" stroke="white" stroke-opacity="0.5" stroke-miterlimit="10"/>
<path d="M151.967 152.147H26.8223" stroke="white" stroke-opacity="0.5" stroke-miterlimit="10"/>
<path d="M146.192 157.35H32.5977" stroke="white" stroke-opacity="0.5" stroke-miterlimit="10"/>
<path d="M139.186 162.568H39.6035" stroke="white" stroke-opacity="0.5" stroke-miterlimit="10"/>
<path d="M130.376 167.771H48.4121" stroke="white" stroke-opacity="0.5" stroke-miterlimit="10"/>
<path d="M118.111 172.989H60.6836" stroke="white" stroke-opacity="0.5" stroke-miterlimit="10"/>
</g>
</svg>
