<svg width="88" height="88" viewBox="0 0 88 88" fill="none" xmlns="http://www.w3.org/2000/svg">
<g opacity="0.5">
<circle cx="3.71831" cy="3.71831" r="3.71831" fill="white"/>
<circle cx="3.71831" cy="19.8311" r="3.71831" fill="white"/>
<circle cx="3.71831" cy="35.9437" r="3.71831" fill="white"/>
<circle cx="3.71831" cy="52.0564" r="3.71831" fill="white"/>
<circle cx="3.71831" cy="68.169" r="3.71831" fill="white"/>
<circle cx="3.71831" cy="84.2818" r="3.71831" fill="white"/>
<circle cx="19.8306" cy="3.71831" r="3.71831" fill="white"/>
<circle cx="19.8306" cy="19.8311" r="3.71831" fill="white"/>
<circle cx="19.8306" cy="35.9437" r="3.71831" fill="white"/>
<circle cx="19.8306" cy="52.0564" r="3.71831" fill="white"/>
<circle cx="19.8306" cy="68.169" r="3.71831" fill="white"/>
<circle cx="19.8306" cy="84.2818" r="3.71831" fill="white"/>
<circle cx="35.9439" cy="3.71831" r="3.71831" fill="white"/>
<circle cx="35.9439" cy="19.8311" r="3.71831" fill="white"/>
<circle cx="35.9439" cy="35.9437" r="3.71831" fill="white"/>
<circle cx="35.9439" cy="52.0564" r="3.71831" fill="white"/>
<circle cx="35.9439" cy="68.169" r="3.71831" fill="white"/>
<circle cx="35.9439" cy="84.2818" r="3.71831" fill="white"/>
<circle cx="52.0562" cy="3.71831" r="3.71831" fill="white"/>
<circle cx="52.0562" cy="19.8311" r="3.71831" fill="white"/>
<circle cx="52.0562" cy="35.9437" r="3.71831" fill="white"/>
<circle cx="52.0562" cy="52.0564" r="3.71831" fill="white"/>
<circle cx="52.0562" cy="68.169" r="3.71831" fill="white"/>
<circle cx="52.0562" cy="84.2818" r="3.71831" fill="white"/>
<circle cx="68.1695" cy="3.71831" r="3.71831" fill="white"/>
<circle cx="68.1695" cy="19.8311" r="3.71831" fill="white"/>
<circle cx="68.1695" cy="35.9437" r="3.71831" fill="white"/>
<circle cx="68.1695" cy="52.0564" r="3.71831" fill="white"/>
<circle cx="68.1695" cy="68.169" r="3.71831" fill="white"/>
<circle cx="68.1695" cy="84.2818" r="3.71831" fill="white"/>
<circle cx="84.2818" cy="3.71831" r="3.71831" fill="white"/>
<circle cx="84.2818" cy="19.8311" r="3.71831" fill="white"/>
<circle cx="84.2818" cy="35.9437" r="3.71831" fill="white"/>
<circle cx="84.2818" cy="52.0564" r="3.71831" fill="white"/>
<circle cx="84.2818" cy="68.169" r="3.71831" fill="white"/>
<circle cx="84.2818" cy="84.2818" r="3.71831" fill="white"/>
</g>
</svg>
