<svg width="89" height="187" viewBox="0 0 89 187" fill="none" xmlns="http://www.w3.org/2000/svg">
<g opacity="0.5">
<path d="M30.3121 6.61279H-45.9961" stroke="white" stroke-opacity="0.5" stroke-miterlimit="10"/>
<path d="M12.999 1H-28.6709" stroke="white" stroke-opacity="0.5" stroke-miterlimit="10"/>
<path d="M41.3018 12.2256H-56.9844" stroke="white" stroke-opacity="0.5" stroke-miterlimit="10"/>
<path d="M49.6884 17.8223H-65.373" stroke="white" stroke-opacity="0.5" stroke-miterlimit="10"/>
<path d="M56.4988 23.4353H-72.1846" stroke="white" stroke-opacity="0.5" stroke-miterlimit="10"/>
<path d="M62.2074 29.0322H-77.8906" stroke="white" stroke-opacity="0.5" stroke-miterlimit="10"/>
<path d="M67.1107 34.645H-82.7939" stroke="white" stroke-opacity="0.5" stroke-miterlimit="10"/>
<path d="M71.288 40.2417H-86.9727" stroke="white" stroke-opacity="0.5" stroke-miterlimit="10"/>
<path d="M74.8985 45.8547H-90.583" stroke="white" stroke-opacity="0.5" stroke-miterlimit="10"/>
<path d="M77.973 51.4517H-93.6416" stroke="white" stroke-opacity="0.5" stroke-miterlimit="10"/>
<path d="M80.5903 57.0645H-96.2744" stroke="white" stroke-opacity="0.5" stroke-miterlimit="10"/>
<path d="M82.7809 62.6775H-98.4668" stroke="white" stroke-opacity="0.5" stroke-miterlimit="10"/>
<path d="M84.5937 68.2742H-100.28" stroke="white" stroke-opacity="0.5" stroke-miterlimit="10"/>
<path d="M86.0295 73.887H-101.714" stroke="white" stroke-opacity="0.5" stroke-miterlimit="10"/>
<path d="M87.1004 79.4839H-102.787" stroke="white" stroke-opacity="0.5" stroke-miterlimit="10"/>
<path d="M87.8273 85.0964H-103.511" stroke="white" stroke-opacity="0.5" stroke-miterlimit="10"/>
<path d="M88.236 90.6938H-103.922" stroke="white" stroke-opacity="0.5" stroke-miterlimit="10"/>
<path d="M88.3156 96.3064H-104" stroke="white" stroke-opacity="0.5" stroke-miterlimit="10"/>
<path d="M88.0799 101.903H-103.763" stroke="white" stroke-opacity="0.5" stroke-miterlimit="10"/>
<path d="M87.5111 107.516H-103.196" stroke="white" stroke-opacity="0.5" stroke-miterlimit="10"/>
<path d="M86.5973 113.129H-102.281" stroke="white" stroke-opacity="0.5" stroke-miterlimit="10"/>
<path d="M85.3513 118.726H-101.036" stroke="white" stroke-opacity="0.5" stroke-miterlimit="10"/>
<path d="M83.7275 124.339H-99.4121" stroke="white" stroke-opacity="0.5" stroke-miterlimit="10"/>
<path d="M81.7567 129.936H-97.4414" stroke="white" stroke-opacity="0.5" stroke-miterlimit="10"/>
<path d="M79.3294 135.548H-95.0127" stroke="white" stroke-opacity="0.5" stroke-miterlimit="10"/>
<path d="M76.5074 141.146H-92.1904" stroke="white" stroke-opacity="0.5" stroke-miterlimit="10"/>
<path d="M73.1634 146.758H-88.8496" stroke="white" stroke-opacity="0.5" stroke-miterlimit="10"/>
<path d="M69.2863 152.355H-84.9697" stroke="white" stroke-opacity="0.5" stroke-miterlimit="10"/>
<path d="M64.76 157.968H-80.4463" stroke="white" stroke-opacity="0.5" stroke-miterlimit="10"/>
<path d="M59.463 163.581H-75.1484" stroke="white" stroke-opacity="0.5" stroke-miterlimit="10"/>
<path d="M53.2522 169.177H-68.9355" stroke="white" stroke-opacity="0.5" stroke-miterlimit="10"/>
<path d="M45.7149 174.79H-61.4004" stroke="white" stroke-opacity="0.5" stroke-miterlimit="10"/>
<path d="M36.2385 180.387H-51.9258" stroke="white" stroke-opacity="0.5" stroke-miterlimit="10"/>
<path d="M23.0443 186H-38.7275" stroke="white" stroke-opacity="0.5" stroke-miterlimit="10"/>
</g>
</svg>
