<svg width="25" height="25" viewBox="0 0 25 25" fill="none" xmlns="http://www.w3.org/2000/svg">
<path d="M13.28 0C13.7457 0.0639586 14.2115 0.126941 14.6773 0.192364C14.7656 0.20457 14.8535 0.222146 14.9409 0.241187C15.2475 0.309052 15.4248 0.549263 15.3691 0.81828C15.3134 1.0873 15.062 1.23425 14.7559 1.20154C13.9747 1.11854 13.1857 0.965238 12.405 0.990626C7.83127 1.1371 4.34918 3.20721 2.2698 7.2737C0.139146 11.4393 0.589786 15.5248 3.25017 19.3663C3.29655 19.4327 3.34782 19.4952 3.37028 19.524C3.73645 19.4571 4.07431 19.3492 4.41412 19.3423C5.33151 19.3238 6.13173 19.957 6.37487 20.8442C6.49053 21.2733 6.46366 21.7283 6.2983 22.1408C6.13293 22.5534 5.83803 22.901 5.45799 23.1314C5.07795 23.3618 4.63335 23.4624 4.19113 23.4183C3.74891 23.3741 3.33301 23.1875 3.00605 22.8864C2.67843 22.5884 2.45792 22.1908 2.37852 21.7551C2.29911 21.3193 2.36522 20.8695 2.56664 20.475C2.66429 20.2846 2.6433 20.1738 2.52075 20.0107C1.05833 18.0624 0.231586 15.8731 0.0405235 13.443C0.0308836 13.3717 0.0173555 13.301 0 13.2311V11.7176C0.0795821 11.1639 0.139635 10.6069 0.244117 10.0576C1.17176 5.07763 5.32858 1.01357 10.3208 0.192364C10.7841 0.1162 11.2518 0.0634704 11.7176 0H13.28ZM4.38727 20.3105C4.17436 20.3119 3.96667 20.3765 3.79057 20.4962C3.61447 20.6159 3.4779 20.7852 3.39821 20.9826C3.31852 21.18 3.29931 21.3967 3.34301 21.6051C3.38671 21.8134 3.49135 22.0041 3.64364 22.1529C3.79594 22.3017 3.98901 22.4019 4.19835 22.4407C4.40769 22.4795 4.62385 22.4553 4.81937 22.371C5.0149 22.2867 5.18097 22.1463 5.2965 21.9674C5.41202 21.7886 5.47179 21.5794 5.46822 21.3666C5.46346 21.0836 5.34726 20.814 5.14487 20.6163C4.94247 20.4186 4.67022 20.3087 4.38727 20.3105Z" fill="black"/>
<path d="M11.7177 24.9976C11.2519 24.9325 10.7863 24.8684 10.3209 24.8052C10.2408 24.794 10.1607 24.7779 10.0816 24.7598C9.7667 24.6885 9.60656 24.4703 9.65734 24.1842C9.70616 23.9069 9.95028 23.7702 10.2637 23.8019C11.0713 23.883 11.8808 24.0123 12.6888 24.0089C17.2294 23.9889 21.5024 21.0849 23.155 16.8514C24.7115 12.8645 24.1969 9.10706 21.7333 5.61473C21.7006 5.5659 21.665 5.52343 21.6298 5.479C21.6195 5.4663 21.6064 5.45654 21.6259 5.47509C21.2617 5.54198 20.9243 5.64988 20.5845 5.6572C19.6695 5.67673 18.8635 5.0391 18.6228 4.15589C18.5063 3.72659 18.5326 3.27107 18.6976 2.85802C18.8627 2.44496 19.1576 2.09678 19.5378 1.86599C19.9181 1.63519 20.3631 1.5343 20.8057 1.57852C21.2483 1.62275 21.6645 1.80969 21.9916 2.11116C22.3187 2.40969 22.5388 2.80729 22.6182 3.24297C22.6976 3.67865 22.6318 4.12833 22.431 4.52304C22.3333 4.71296 22.3563 4.82428 22.4798 4.98784C23.9393 6.93556 24.7651 9.12415 24.9571 11.5536C24.9663 11.6253 24.9798 11.6964 24.9976 11.7665V13.28C24.984 13.343 24.9659 13.405 24.9566 13.4689C24.8717 14.047 24.818 14.6319 24.6998 15.2031C23.6989 20.0479 19.5543 24.0138 14.6764 24.8047C14.2126 24.8799 13.7458 24.9336 13.28 25L11.7177 24.9976ZM20.5933 4.68708C20.8061 4.68912 21.0148 4.62785 21.1928 4.51107C21.3708 4.39428 21.51 4.22725 21.5929 4.03117C21.6758 3.83509 21.6985 3.6188 21.6582 3.40978C21.618 3.20075 21.5165 3.0084 21.3667 2.85716C21.2169 2.70591 21.0255 2.60259 20.8169 2.56031C20.6083 2.51802 20.3918 2.53869 20.1949 2.61967C19.998 2.70066 19.8297 2.83832 19.7112 3.01517C19.5927 3.19202 19.5294 3.4001 19.5294 3.61297C19.5294 3.89607 19.6412 4.16774 19.8404 4.36888C20.0396 4.57002 20.3102 4.68438 20.5933 4.68708Z" fill="black"/>
<path d="M19.2298 16.4048C19.387 16.5512 19.5969 16.7465 19.7976 16.9457C20.0793 17.2274 20.0783 17.4828 19.7942 17.7694C19.1234 18.4444 18.4504 19.1175 17.7753 19.7887C17.4824 20.0782 17.2324 20.0733 16.9341 19.7794C16.7486 19.5968 16.564 19.4132 16.3785 19.2311C16.3673 19.2204 16.3497 19.2165 16.3873 19.235C15.7848 19.4704 15.2155 19.6871 14.6565 19.9186C14.6194 19.9393 14.5875 19.9681 14.5632 20.003C14.539 20.0378 14.5229 20.0778 14.5164 20.1197C14.4988 20.3707 14.5139 20.6241 14.5071 20.876C14.5008 21.1894 14.3152 21.3803 14.0042 21.3847C13.0034 21.3899 12.0026 21.3899 11.0021 21.3847C10.6779 21.3847 10.4973 21.1894 10.4899 20.8614C10.4846 20.6172 10.4836 20.3731 10.4899 20.129C10.4933 20.0055 10.4538 19.9508 10.3298 19.9049C9.76734 19.6969 9.21173 19.4709 8.59021 19.2267C8.44374 19.3825 8.25187 19.5924 8.05315 19.7926C7.76851 20.0763 7.51219 20.0768 7.22951 19.796C6.54923 19.1184 5.87075 18.4392 5.19406 17.7586C4.92211 17.4842 4.92309 17.2274 5.19699 16.954C5.39765 16.7534 5.60906 16.5634 5.76871 16.4131C5.52459 15.7783 5.30489 15.2042 5.07347 14.6344C5.04954 14.5763 4.94799 14.5192 4.87817 14.5148C4.63406 14.5002 4.38994 14.5148 4.14582 14.508C3.80406 14.5006 3.6156 14.3176 3.61462 13.9773C3.61104 12.993 3.61104 12.0085 3.61462 11.0239C3.61462 10.6773 3.79771 10.4962 4.13996 10.4869C4.38408 10.4815 4.6282 10.4962 4.87231 10.4786C4.91447 10.4724 4.95468 10.4567 4.98993 10.4328C5.02519 10.4089 5.05458 10.3773 5.07591 10.3404C5.30684 9.77894 5.52362 9.21161 5.77164 8.57593C5.61394 8.42946 5.40107 8.24149 5.19992 8.0418C4.92651 7.76986 4.92651 7.50914 5.19699 7.2372C5.87368 6.5566 6.55249 5.87779 7.23341 5.20077C7.51756 4.91857 7.77047 4.9215 8.05706 5.20321C8.21964 5.36238 8.37197 5.53326 8.54529 5.68071C8.5799 5.70428 8.61934 5.71985 8.66072 5.72627C8.70211 5.73269 8.7444 5.7298 8.78453 5.71781C9.30531 5.5134 9.82203 5.29923 10.3347 5.0753C10.3721 5.0557 10.4046 5.028 10.43 4.99421C10.4553 4.96042 10.4728 4.92141 10.4811 4.88C10.4992 4.62905 10.4841 4.37615 10.4904 4.12422C10.4992 3.80931 10.6813 3.61938 10.9938 3.61743C11.9947 3.6119 12.9954 3.6119 13.9959 3.61743C14.3201 3.61743 14.5008 3.81272 14.5081 4.14082C14.5135 4.38493 14.5008 4.62905 14.5149 4.87317C14.5193 4.94299 14.5745 5.04649 14.6326 5.06846C15.2028 5.2994 15.778 5.51715 16.4176 5.76371C16.564 5.60552 16.754 5.39362 16.9546 5.19296C17.2261 4.92101 17.4834 4.92248 17.7592 5.19638C18.4408 5.87242 19.1199 6.5509 19.7966 7.23182C20.0754 7.51158 20.0725 7.76888 19.7874 8.05547C19.5921 8.25077 19.386 8.43337 19.2308 8.57886C19.4749 9.21356 19.6946 9.7887 19.9255 10.358C19.9467 10.3918 19.9753 10.4204 20.0091 10.4415C20.0429 10.4627 20.0811 10.4758 20.1208 10.48C20.3649 10.4947 20.6091 10.4825 20.8532 10.4869C21.1988 10.4937 21.3844 10.6729 21.3858 11.0142C21.3897 11.9984 21.3897 12.9829 21.3858 13.9675C21.3858 14.3205 21.1974 14.5006 20.8375 14.5046C20.5934 14.5089 20.3493 14.4963 20.1052 14.5124C20.0661 14.5192 20.0291 14.5348 19.997 14.5582C19.9649 14.5816 19.9386 14.612 19.9202 14.6471C19.6922 15.21 19.4749 15.7774 19.2298 16.4048ZM20.3967 11.4619H20.0061C19.884 11.4619 19.762 11.4648 19.6399 11.4619C19.3162 11.4511 19.158 11.3325 19.0843 11.0225C18.9064 10.2621 18.6044 9.53632 18.1903 8.87424C18.0307 8.61987 18.06 8.40798 18.2743 8.19071C18.4516 8.01251 18.6415 7.84895 18.8158 7.6849C18.3051 7.17275 17.8256 6.69037 17.3057 6.16796C17.1519 6.33836 16.9952 6.52486 16.8243 6.6977C16.5802 6.94572 16.3814 6.96867 16.0836 6.78167C15.4413 6.38113 14.7377 6.08854 14.0008 5.91555C13.6591 5.83352 13.538 5.68266 13.5331 5.33504C13.5302 5.09385 13.5331 4.85266 13.5331 4.60269H11.4962C11.484 4.62807 11.4718 4.64174 11.4713 4.6559C11.4683 4.88342 11.4683 5.11143 11.4644 5.33943C11.4581 5.67582 11.3395 5.83694 11.0172 5.91359C10.2646 6.08992 9.5459 6.38809 8.8895 6.79632C8.61755 6.96623 8.41298 6.94035 8.1884 6.71283C8.01263 6.53463 7.85151 6.34177 7.70407 6.17822L6.19884 7.69174C6.35654 7.83821 6.54061 8.00177 6.71002 8.17509C6.94389 8.41188 6.96781 8.6145 6.79156 8.89719C6.3915 9.53961 6.09833 10.2427 5.92348 10.979C5.83511 11.3462 5.68717 11.457 5.30293 11.4609C5.07102 11.4633 4.83863 11.4609 4.6033 11.4609V13.53C4.86743 13.53 5.1179 13.5266 5.36836 13.53C5.67546 13.5354 5.84097 13.658 5.90981 13.9533C6.08562 14.7146 6.38637 15.4415 6.79986 16.1045C6.96781 16.3735 6.94096 16.5805 6.71491 16.8056C6.5367 16.9828 6.34531 17.1474 6.16857 17.307C6.69049 17.8236 7.17434 18.3015 7.68893 18.8103C7.84029 18.6472 8.00043 18.4636 8.17228 18.2913C8.41933 18.0428 8.61169 18.0218 8.91196 18.2068C9.54748 18.6026 10.2437 18.8912 10.9728 19.0612C11.3507 19.1481 11.461 19.3054 11.4644 19.7013C11.4644 19.9327 11.4644 20.1646 11.4644 20.3907H13.515C13.5223 20.3704 13.5275 20.3495 13.5306 20.3282C13.5306 20.1085 13.5306 19.8888 13.5346 19.6696C13.5389 19.3049 13.6517 19.1564 14.0106 19.07C14.7473 18.8961 15.4508 18.6034 16.0934 18.2034C16.3863 18.0198 16.5816 18.0442 16.8326 18.2957C17.0035 18.4675 17.1611 18.6531 17.3071 18.8137L18.8163 17.306C18.6454 17.1459 18.4574 16.9789 18.2792 16.8007C18.0561 16.5771 18.0351 16.372 18.2021 16.0991C18.6101 15.4425 18.9081 14.7236 19.0843 13.9709C19.159 13.6565 19.3177 13.5349 19.636 13.5315C19.886 13.5281 20.136 13.5315 20.3972 13.5315L20.3967 11.4619Z" fill="black"/>
<path d="M16.9852 1.84691C16.8547 1.84108 16.7316 1.78445 16.6423 1.68912C16.553 1.59379 16.5045 1.46731 16.5072 1.33671C16.5141 1.21048 16.5697 1.09187 16.6623 1.00582C16.755 0.919766 16.8773 0.872989 17.0037 0.875328C17.0684 0.875971 17.1323 0.889677 17.1916 0.915624C17.2509 0.941571 17.3043 0.979224 17.3487 1.02632C17.393 1.07342 17.4274 1.129 17.4498 1.18972C17.4721 1.25044 17.482 1.31505 17.4788 1.37967C17.472 1.50596 17.417 1.62484 17.3252 1.71178C17.2334 1.79872 17.1116 1.84709 16.9852 1.84691Z" fill="black"/>
<path d="M8.50482 23.6681C8.5034 23.7312 8.48935 23.7933 8.4635 23.8508C8.43765 23.9084 8.40052 23.9601 8.35432 24.003C8.30812 24.046 8.25377 24.0792 8.1945 24.1007C8.13524 24.1223 8.07225 24.1318 8.00926 24.1285C7.88222 24.1256 7.76146 24.0727 7.67317 23.9813C7.58488 23.8899 7.53618 23.7674 7.53763 23.6403C7.53957 23.5752 7.55443 23.5112 7.58133 23.4519C7.60823 23.3926 7.64664 23.3392 7.69433 23.2949C7.74203 23.2505 7.79805 23.2161 7.85915 23.1936C7.92025 23.1711 7.98522 23.161 8.05027 23.1638C8.17731 23.1707 8.29643 23.2277 8.3816 23.3222C8.46677 23.4167 8.51107 23.5411 8.50482 23.6681Z" fill="black"/>
<path d="M12.4985 8.46313C14.717 8.46313 16.5352 10.2784 16.5367 12.4974C16.5382 14.7164 14.718 16.5336 12.4985 16.5346C10.279 16.5356 8.46179 14.7179 8.46082 12.4998C8.45984 10.2818 10.278 8.46411 12.4985 8.46313ZM15.5602 12.4911C15.5534 10.811 14.1688 9.43374 12.4926 9.4396C10.8165 9.44546 9.43387 10.8301 9.43972 12.5057C9.44558 14.1813 10.8322 15.5645 12.5068 15.5581C14.1814 15.5518 15.5656 14.1652 15.5588 12.4911H15.5602Z" fill="black"/>
</svg>
