<svg width="419" height="444" viewBox="0 0 419 444" fill="none" xmlns="http://www.w3.org/2000/svg">
<path fill-rule="evenodd" clip-rule="evenodd" d="M-1.00002 444L-1 0L0 4.37112e-08L-1.90735e-05 444H-1.00002ZM65 444L65 0L66 4.37112e-08L66 444H65ZM131 444L131 0L132 4.37112e-08L132 444H131ZM197 444L197 0L198 4.37112e-08L198 444H197ZM263 444L263 0L264 4.37112e-08L264 444H263ZM329 444L329 0L330 4.37112e-08L330 444H329ZM395 444L395 0L396 4.37112e-08L396 444H395ZM419 62H-25V61H419V62ZM419 126H-25V125H419V126ZM419 190H-25V189H419V190ZM419 254H-25V253H419V254ZM419 318H-25V317H419V318Z" fill="url(#paint0_linear_3_39)" fill-opacity="0.5"/>
<defs>
<linearGradient id="paint0_linear_3_39" x1="-21.5" y1="-16" x2="190" y2="317" gradientUnits="userSpaceOnUse">
<stop stop-color="white"/>
<stop offset="1" stop-color="white" stop-opacity="0"/>
</linearGradient>
</defs>
</svg>
