<svg width="59" height="59" viewBox="0 0 59 59" fill="none" xmlns="http://www.w3.org/2000/svg">
<path d="M26.6009 7.79843H7.46687C6.01697 7.79843 4.62645 8.3744 3.60121 9.39963C2.57597 10.4249 2 11.8154 2 13.2653V51.5332C2 52.9831 2.57597 54.3736 3.60121 55.3988C4.62645 56.424 6.01697 57 7.46687 57H45.735C47.1849 57 48.5754 56.424 49.6006 55.3988C50.6259 54.3736 51.2018 52.9831 51.2018 51.5332V32.3992" stroke="#FFC93E" stroke-width="3" stroke-linecap="round" stroke-linejoin="round"/>
<path d="M47.1015 3.69833C48.1889 2.61091 49.6638 2 51.2016 2C52.7395 2 54.2143 2.61091 55.3018 3.69833C56.3892 4.78575 57.0001 6.26061 57.0001 7.79846C57.0001 9.33631 56.3892 10.8112 55.3018 11.8986L29.3341 37.8661L18.4004 40.5995L21.1338 29.6658L47.1015 3.69833Z" stroke="#FFC93E" stroke-width="3" stroke-linecap="round" stroke-linejoin="round"/>
</svg>
