<svg width="338" height="258" viewBox="0 0 338 258" fill="none" xmlns="http://www.w3.org/2000/svg">
<path fill-rule="evenodd" clip-rule="evenodd" d="M-5.37856 258L-5.37855 0L-4.37855 3.13603e-08L-4.37856 258L-5.37856 258ZM48.581 258L48.581 0L49.581 3.13603e-08L49.581 258L48.581 258ZM102.54 258L102.54 0L103.54 3.13603e-08L103.54 258L102.54 258ZM156.5 258L156.5 0L157.5 3.13603e-08L157.5 258L156.5 258ZM210.46 258L210.46 0L211.46 3.13603e-08L211.46 258L210.46 258ZM264.419 258L264.419 0L265.419 3.13603e-08L265.419 258L264.419 258ZM318.379 258L318.379 0L319.379 3.13603e-08L319.379 258L318.379 258ZM338 36.0269H-25V35.0269H338V36.0269ZM338 73.2161H-25V72.2161H338V73.2161ZM338 110.405H-25V109.405H338V110.405ZM338 147.595H-25V146.595H338V147.595ZM338 184.784H-25V183.784H338V184.784Z" fill="url(#paint0_linear_426_1311)" fill-opacity="0.5"/>
<defs>
<linearGradient id="paint0_linear_426_1311" x1="-22.1385" y1="-9.29729" x2="79.6958" y2="216.29" gradientUnits="userSpaceOnUse">
<stop stop-color="#FB2156"/>
<stop offset="1" stop-color="white" stop-opacity="0.58"/>
</linearGradient>
</defs>
</svg>
