<svg width="223" height="184" viewBox="0 0 223 184" fill="none" xmlns="http://www.w3.org/2000/svg">
<path d="M211.401 93.7901C157.538 119.599 47.6807 172.789 39.1525 179.073L4.36621 127.454C63.4655 98.8397 183.347 40.4885 190.08 36C192.324 36 205.229 70.4122 211.401 87.6183" stroke="white" stroke-width="2"/>
<path d="M214.206 97.3832C158.738 123.294 45.6057 176.691 36.8232 183L1 131.179C61.861 102.453 185.316 43.8726 192.25 39.3665C194.561 39.3665 207.85 73.9136 214.206 91.1872" stroke="white"/>
<path d="M217.572 97.3832C162.104 123.294 48.9719 176.691 40.1895 183L4.36621 131.179C65.2272 102.453 188.683 43.8726 195.616 39.3665C197.927 39.3665 211.217 73.9136 217.572 91.1872" stroke="white"/>
<path d="M63.9145 125.346L66.4817 124.104L68.6917 140.921L65.8347 142.303L57.0633 133.312L58.6093 145.8L55.7315 147.193L43.9152 135.025L46.7101 133.672L55.6425 142.943L54.0597 130.115L56.5441 128.913L65.5687 138.216L63.9145 125.346ZM79.649 135.797C76.2537 137.44 72.6271 136.282 71.0241 132.97C69.4211 129.657 70.7733 126.116 74.1687 124.472C77.6054 122.809 81.2012 123.957 82.8042 127.269C84.4072 130.582 83.0857 134.134 79.649 135.797ZM78.577 133.582C80.461 132.67 81.2176 130.643 80.1956 128.531C79.1737 126.42 77.1147 125.755 75.2307 126.667C73.3674 127.569 72.6108 129.596 73.6327 131.707C74.6546 133.819 76.7137 134.484 78.577 133.582ZM85.849 120.966C86.0333 119.446 87.0985 118.215 88.9411 117.324L90.1333 119.787C89.8855 119.856 89.6892 119.926 89.5029 120.016C87.536 120.968 86.8549 122.728 87.947 124.985L90.5418 130.347L87.9539 131.599L82.6039 120.544L85.0676 119.351L85.849 120.966ZM96.5466 127.441L89.1126 112.079L91.7005 110.827L99.1345 126.189L96.5466 127.441ZM103.337 105.196L105.925 103.943L113.359 119.305L110.874 120.507L110.183 119.079C109.825 120.556 108.791 121.694 107.28 122.426C104.071 123.979 100.608 122.895 98.9451 119.458C97.282 116.021 98.5909 112.654 101.8 111.101C103.228 110.41 104.722 110.275 106.082 110.868L103.337 105.196ZM106.519 120.06C108.382 119.158 109.159 117.121 108.137 115.01C107.115 112.898 105.036 112.244 103.172 113.145C101.309 114.047 100.532 116.084 101.554 118.196C102.576 120.307 104.655 120.962 106.519 120.06ZM129.522 111.739C125.092 113.883 120.267 112.359 118.173 108.033C116.079 103.706 117.878 98.9763 122.33 96.8223C124.69 95.6801 127.129 95.5471 129.237 96.4693L128.289 98.9465C126.682 98.3188 125.107 98.391 123.596 99.1223C120.594 100.575 119.442 103.739 120.885 106.72C122.328 109.701 125.523 110.761 128.525 109.308C130.037 108.577 131.07 107.387 131.565 105.716L134.106 106.531C133.522 108.756 131.903 110.586 129.522 111.739ZM137.508 107.619L130.074 92.2568L132.662 91.0045L140.096 106.366L137.508 107.619ZM142.306 91.499C145.494 89.956 148.068 90.5757 149.611 93.764L152.747 100.244L150.304 101.426L149.653 100.081C149.493 101.334 148.552 102.453 146.896 103.254C144.37 104.477 142.105 103.861 141.173 101.936C140.281 100.093 140.822 98.0427 144.176 96.4197L147.033 95.0371L146.953 94.8714C146.222 93.3601 144.88 92.9107 143.037 93.8024C141.795 94.4035 140.712 95.4387 140.214 96.5227L138.288 95.1296C139.028 93.6476 140.526 92.3606 142.306 91.499ZM146.523 101.11C147.786 100.499 148.602 99.3881 148.486 98.039L147.865 96.7554L145.194 98.0479C143.434 98.8995 143.279 99.7924 143.67 100.6C144.12 101.531 145.198 101.751 146.523 101.11ZM159.554 97.1287C157.712 98.0204 155.609 98.3737 154.274 98.1507L154.316 95.703C155.6 95.8739 157.311 95.6081 158.698 94.9368C160.334 94.1453 160.797 93.3592 160.426 92.5932C159.404 90.4815 153.534 95.7752 151.4 91.3654C150.388 89.2744 151.61 86.9963 154.592 85.5536C156.062 84.8422 157.909 84.3826 159.193 84.5021L159.151 86.9498C157.795 86.8397 156.639 87.1436 155.583 87.6546C154.009 88.416 153.515 89.2943 153.865 90.0189C154.947 92.2548 160.818 86.9611 162.912 91.2881C163.913 93.3584 162.66 95.6259 159.554 97.1287ZM170.209 91.9725C168.367 92.8642 166.264 93.2176 164.929 92.9946L164.971 90.5469C166.255 90.7178 167.966 90.4519 169.353 89.7806C170.989 88.9891 171.451 88.203 171.081 87.437C170.059 85.3253 164.189 90.619 162.055 86.2092C161.043 84.1182 162.265 81.8401 165.247 80.3974C166.717 79.686 168.564 79.2265 169.848 79.3459L169.806 81.7937C168.45 81.6835 167.294 81.9875 166.238 82.4984C164.664 83.2598 164.17 84.1381 164.52 84.8627C165.602 87.0987 171.472 81.8049 173.566 86.1319C174.568 88.2022 173.315 90.4697 170.209 91.9725Z" fill="white"/>
<path d="M186.786 0V18" stroke="white" stroke-width="2"/>
<path d="M207.286 3C204.453 7 198.586 16.1 197.786 20.5" stroke="white" stroke-width="2"/>
<path d="M222.786 18.013C220.286 17.8464 213.786 19.213 207.786 26.013" stroke="white" stroke-width="2"/>
</svg>
